<svg width="35" height="35" viewBox="0 0 35 35" fill="none" xmlns="http://www.w3.org/2000/svg">
<g opacity="0.5">
<path opacity="0.4" fill-rule="evenodd" clip-rule="evenodd" d="M8.61963 30.0249C8.61963 28.7999 9.6113 27.8082 10.8363 27.8082C12.0467 27.8082 13.0384 28.7999 13.0384 30.0249C13.0384 31.2353 12.0467 32.227 10.8363 32.227C9.6113 32.227 8.61963 31.2353 8.61963 30.0249ZM25.0259 30.0249C25.0259 28.7999 26.0175 27.8082 27.2425 27.8082C28.453 27.8082 29.4446 28.7999 29.4446 30.0249C29.4446 31.2353 28.453 32.227 27.2425 32.227C26.0175 32.227 25.0259 31.2353 25.0259 30.0249Z" fill="url(#paint0_linear_97_3388)"/>
<path fill-rule="evenodd" clip-rule="evenodd" d="M29.4449 9.25893C30.3345 9.25893 30.9178 9.56518 31.5012 10.236C32.0845 10.9068 32.1866 11.8693 32.0553 12.7429L30.6699 22.3096C30.4074 24.1485 28.8324 25.5033 26.9803 25.5033H11.0699C9.13033 25.5033 7.52616 24.0158 7.36575 22.0923L6.02408 6.19497L3.822 5.81581C3.23866 5.71372 2.83033 5.14497 2.93241 4.56164C3.0345 3.96372 3.60325 3.56997 4.20116 3.65747L7.67929 4.18247C8.17512 4.27143 8.53971 4.67831 8.58346 5.17414L8.86054 8.44081C8.90429 8.90893 9.28346 9.25893 9.75012 9.25893H29.4449ZM20.6074 16.8408H24.647C25.2595 16.8408 25.7407 16.345 25.7407 15.7471C25.7407 15.1346 25.2595 14.6533 24.647 14.6533H20.6074C19.9949 14.6533 19.5137 15.1346 19.5137 15.7471C19.5137 16.345 19.9949 16.8408 20.6074 16.8408Z" fill="url(#paint1_linear_97_3388)"/>
</g>
<circle cx="28.5" cy="7.5" r="6" fill="#FF4B4B" stroke="white"/>
<path d="M26.729 11H28.205L30.77 5.42V4.34H26.108V5.519H29.276L26.729 11Z" fill="white"/>
<defs>
<linearGradient id="paint0_linear_97_3388" x1="8.61963" y1="27.5369" x2="24.6762" y2="39.2613" gradientUnits="userSpaceOnUse">
<stop stop-color="#53E88B"/>
<stop offset="1" stop-color="#15BE77"/>
</linearGradient>
<linearGradient id="paint1_linear_97_3388" x1="2.91675" y1="2.30317" x2="36.0055" y2="9.14932" gradientUnits="userSpaceOnUse">
<stop stop-color="#53E88B"/>
<stop offset="1" stop-color="#15BE77"/>
</linearGradient>
</defs>
</svg>
