<svg width="175" height="62" viewBox="0 0 175 62" fill="none" xmlns="http://www.w3.org/2000/svg">
<path d="M71.062 59V50.7236C71.062 49.9326 71.0571 49.2417 71.0474 48.6509C71.0376 48.0552 71.0059 47.5986 70.9521 47.2812H72.417V54.5981L75.3833 51.5293H77.2144L73.5889 54.8032L77.4341 59H75.6396L72.417 55.1914V59H71.062ZM86.6304 52.7012C86.5083 52.6768 86.3301 52.6475 86.0957 52.6133C85.8662 52.5742 85.5684 52.5547 85.2021 52.5547C84.7236 52.5547 84.3232 52.6523 84.001 52.8477C83.6836 53.0381 83.4297 53.2944 83.2393 53.6167C83.0488 53.9341 82.9121 54.3003 82.8291 54.7153C82.751 55.1304 82.7119 55.5576 82.7119 55.9971C82.7119 56.2803 82.7388 56.5415 82.7925 56.7808C82.8511 57.0151 82.9292 57.2202 83.0269 57.396C83.1245 57.5669 83.2368 57.7012 83.3638 57.7988C83.4907 57.8916 83.6274 57.938 83.7739 57.938C83.9351 57.938 84.0986 57.8843 84.2646 57.7769C84.4355 57.6694 84.6016 57.5254 84.7627 57.3447C84.9287 57.1592 85.0898 56.9468 85.2461 56.7075C85.4023 56.4683 85.5488 56.2168 85.6855 55.9531C85.8223 55.6846 85.9492 55.4136 86.0664 55.1401C86.1836 54.8667 86.2837 54.6079 86.3667 54.3638C86.4497 54.1147 86.5132 53.8877 86.5571 53.6826C86.606 53.4775 86.6304 53.3091 86.6304 53.1772V52.7012ZM87.1797 59C87.126 58.8828 87.0771 58.707 87.0332 58.4727C86.9941 58.2383 86.96 57.9868 86.9307 57.7183C86.9062 57.4448 86.8867 57.1787 86.8721 56.9199C86.8574 56.6611 86.8501 56.4512 86.8501 56.29V55.5576C86.6938 55.9727 86.5059 56.395 86.2861 56.8247C86.0713 57.2544 85.8247 57.645 85.5464 57.9966C85.2681 58.3433 84.9604 58.6289 84.6235 58.8535C84.2915 59.0732 83.9351 59.1831 83.5542 59.1831C83.2466 59.1831 82.9585 59.1147 82.6899 58.978C82.4214 58.8413 82.187 58.6387 81.9868 58.3701C81.7915 58.1016 81.6377 57.7695 81.5254 57.374C81.4131 56.9736 81.3569 56.5146 81.3569 55.9971C81.3569 55.416 81.4351 54.8496 81.5913 54.2979C81.7476 53.7412 81.9868 53.248 82.3091 52.8184C82.6313 52.3838 83.0415 52.0371 83.5396 51.7783C84.0376 51.5146 84.6284 51.3828 85.312 51.3828C85.7856 51.3828 86.2568 51.4146 86.7256 51.478C87.1943 51.5366 87.6143 51.6147 87.9854 51.7124V55.1182C87.9854 56.041 88.0293 56.8174 88.1172 57.4473C88.2051 58.0723 88.3198 58.5898 88.4614 59H87.1797ZM98.3462 59V54.9717C98.3462 54.5127 98.3145 54.1343 98.251 53.8364C98.1924 53.5386 98.1021 53.3042 97.98 53.1333C97.8628 52.9575 97.7114 52.8354 97.5259 52.7671C97.3452 52.6987 97.1304 52.6646 96.8813 52.6646C96.6177 52.6646 96.3589 52.728 96.105 52.855C95.856 52.9771 95.6265 53.1382 95.4165 53.3384C95.2065 53.5337 95.021 53.7559 94.8599 54.0049C94.6987 54.2539 94.5791 54.5029 94.501 54.752V59H93.146V54.4956C93.146 53.7729 93.1045 53.1626 93.0215 52.6646C92.9434 52.1616 92.8628 51.7832 92.7798 51.5293H94.0981C94.1274 51.6074 94.1567 51.71 94.186 51.8369C94.2153 51.959 94.2422 52.0884 94.2666 52.2251C94.291 52.3618 94.313 52.4961 94.3325 52.6279L94.3911 52.9575C94.855 52.4009 95.3237 52.0005 95.7974 51.7563C96.271 51.5073 96.7666 51.3828 97.2842 51.3828C98.0654 51.3828 98.6636 51.6392 99.0786 52.1519C99.4937 52.6597 99.7012 53.4165 99.7012 54.4224V59H98.3462Z" fill="url(#paint0_linear_112_1417)"/>
<path d="M76.7884 35H70.8565L79.8949 8.81818H87.0284L96.054 35H90.1222L83.5639 14.8011H83.3594L76.7884 35ZM76.4176 24.7088H90.429V29.0298H76.4176V24.7088ZM115.336 17.2812C115.157 16.6591 114.905 16.1094 114.581 15.6321C114.257 15.1463 113.861 14.7372 113.392 14.4048C112.932 14.0639 112.404 13.804 111.807 13.625C111.219 13.446 110.567 13.3565 109.851 13.3565C108.513 13.3565 107.337 13.6889 106.323 14.3537C105.317 15.0185 104.533 15.9858 103.971 17.2557C103.408 18.517 103.127 20.0597 103.127 21.8835C103.127 23.7074 103.404 25.2585 103.958 26.5369C104.512 27.8153 105.296 28.7912 106.31 29.4645C107.324 30.1293 108.522 30.4616 109.902 30.4616C111.155 30.4616 112.225 30.2401 113.111 29.7969C114.006 29.3452 114.688 28.7102 115.157 27.892C115.634 27.0739 115.873 26.1065 115.873 24.9901L116.998 25.1562H110.248V20.9886H121.203V24.2869C121.203 26.5881 120.718 28.5653 119.746 30.2188C118.775 31.8636 117.436 33.1335 115.732 34.0284C114.027 34.9148 112.076 35.358 109.877 35.358C107.422 35.358 105.266 34.8168 103.408 33.7344C101.55 32.6435 100.101 31.0966 99.0614 29.0938C98.0302 27.0824 97.5146 24.696 97.5146 21.9347C97.5146 19.8125 97.8214 17.9205 98.435 16.2585C99.0572 14.5881 99.9265 13.1733 101.043 12.0142C102.159 10.8551 103.459 9.97301 104.942 9.3679C106.425 8.76278 108.032 8.46023 109.762 8.46023C111.245 8.46023 112.625 8.67756 113.904 9.11222C115.182 9.53835 116.316 10.1435 117.304 10.9276C118.301 11.7116 119.115 12.6449 119.746 13.7273C120.377 14.8011 120.782 15.9858 120.961 17.2812H115.336ZM125.362 35V8.81818H135.691C137.668 8.81818 139.356 9.17187 140.754 9.87926C142.16 10.5781 143.229 11.571 143.962 12.858C144.704 14.1364 145.075 15.6406 145.075 17.3707C145.075 19.1094 144.7 20.6051 143.95 21.858C143.2 23.1023 142.113 24.0568 140.69 24.7216C139.275 25.3864 137.562 25.7188 135.55 25.7188H128.634V21.2699H134.656C135.712 21.2699 136.59 21.125 137.289 20.8352C137.988 20.5455 138.508 20.1108 138.849 19.5312C139.198 18.9517 139.373 18.2315 139.373 17.3707C139.373 16.5014 139.198 15.7685 138.849 15.1719C138.508 14.5753 137.984 14.1236 137.276 13.8168C136.577 13.5014 135.695 13.3438 134.63 13.3438H130.897V35H125.362ZM139.501 23.0852L146.008 35H139.897L133.531 23.0852H139.501ZM173.046 21.9091C173.046 24.7642 172.505 27.1932 171.423 29.196C170.349 31.1989 168.883 32.7287 167.025 33.7855C165.175 34.8338 163.096 35.358 160.786 35.358C158.46 35.358 156.371 34.8295 154.522 33.7727C152.673 32.7159 151.211 31.1861 150.137 29.1832C149.063 27.1804 148.526 24.7557 148.526 21.9091C148.526 19.054 149.063 16.625 150.137 14.6222C151.211 12.6193 152.673 11.0937 154.522 10.0455C156.371 8.98864 158.46 8.46023 160.786 8.46023C163.096 8.46023 165.175 8.98864 167.025 10.0455C168.883 11.0937 170.349 12.6193 171.423 14.6222C172.505 16.625 173.046 19.054 173.046 21.9091ZM167.434 21.9091C167.434 20.0597 167.157 18.5 166.603 17.2301C166.058 15.9602 165.286 14.9972 164.289 14.3409C163.292 13.6847 162.124 13.3565 160.786 13.3565C159.448 13.3565 158.281 13.6847 157.283 14.3409C156.286 14.9972 155.511 15.9602 154.957 17.2301C154.411 18.5 154.138 20.0597 154.138 21.9091C154.138 23.7585 154.411 25.3182 154.957 26.5881C155.511 27.858 156.286 28.821 157.283 29.4773C158.281 30.1335 159.448 30.4616 160.786 30.4616C162.124 30.4616 163.292 30.1335 164.289 29.4773C165.286 28.821 166.058 27.858 166.603 26.5881C167.157 25.3182 167.434 23.7585 167.434 21.9091Z" fill="#4F4F4F"/>
<path d="M55 32.5C55 37.939 53.3872 43.2558 50.3654 47.7782C47.3437 52.3005 43.0488 55.8253 38.0238 57.9067C32.9988 59.9881 27.4695 60.5327 22.135 59.4716C16.8005 58.4105 11.9005 55.7914 8.05456 51.9454C4.20862 48.0995 1.5895 43.1995 0.528405 37.865C-0.532689 32.5305 0.011903 27.0012 2.09331 21.9762C4.17472 16.9512 7.69947 12.6563 12.2218 9.63459C16.7442 6.61285 22.061 5 27.5 5L27.5 32.5H55Z" fill="#A1B748"/>
<path d="M48.4001 32.5C48.4001 27.6647 46.7235 22.9789 43.656 19.2412C40.5885 15.5034 36.3199 12.9449 31.5775 12.0016C26.8351 11.0582 21.9123 11.7885 17.6479 14.0678C13.3835 16.3472 10.0414 20.0346 8.19102 24.5019C6.34062 28.9691 6.09642 33.9398 7.50004 38.5669C8.90366 43.194 11.8683 47.1913 15.8887 49.8777C19.9091 52.5641 24.7366 53.7733 29.5487 53.2993C34.3607 52.8254 38.8595 50.6976 42.2786 47.2785L27.5001 32.5H48.4001Z" fill="#4F4F4F"/>
<path d="M55 32.5C55 37.939 53.3872 43.2558 50.3654 47.7782C47.3437 52.3005 43.0488 55.8253 38.0238 57.9067C32.9988 59.9881 27.4695 60.5327 22.135 59.4716C16.8005 58.4105 11.9005 55.7914 8.05456 51.9454C4.20862 48.0995 1.5895 43.1995 0.528405 37.865C-0.532689 32.5305 0.011903 27.0012 2.09331 21.9762C4.17472 16.9512 7.69947 12.6563 12.2218 9.63459C16.7442 6.61285 22.061 5 27.5 5L27.5 32.5H55Z" fill="url(#paint1_linear_112_1417)"/>
<defs>
<linearGradient id="paint0_linear_112_1417" x1="70" y1="44" x2="104.936" y2="49.3454" gradientUnits="userSpaceOnUse">
<stop stop-color="#48B760"/>
<stop offset="1" stop-color="#6BB748"/>
</linearGradient>
<linearGradient id="paint1_linear_112_1417" x1="27.5" y1="5" x2="27.5" y2="60" gradientUnits="userSpaceOnUse">
<stop stop-color="#48B760"/>
<stop offset="1" stop-color="#6BB748" stop-opacity="0.63"/>
</linearGradient>
</defs>
</svg>
