<svg width="55" height="55" viewBox="0 0 55 55" fill="none" xmlns="http://www.w3.org/2000/svg">
<path d="M55 27.5C55 32.939 53.3872 38.2558 50.3654 42.7782C47.3437 47.3005 43.0488 50.8253 38.0238 52.9067C32.9988 54.9881 27.4695 55.5327 22.135 54.4716C16.8005 53.4105 11.9005 50.7914 8.05456 46.9454C4.20862 43.0995 1.5895 38.1995 0.528405 32.865C-0.532689 27.5305 0.011903 22.0012 2.09331 16.9762C4.17472 11.9512 7.69947 7.65632 12.2218 4.63459C16.7442 1.61285 22.061 -6.48593e-08 27.5 0V27.5H55Z" fill="#A1B748"/>
<path d="M48.4 27.5C48.4 22.6647 46.7234 17.9789 43.6559 14.2412C40.5884 10.5034 36.3198 7.94492 31.5774 7.00159C26.8349 6.05827 21.9122 6.78849 17.6478 9.06785C13.3834 11.3472 10.0413 15.0347 8.19089 19.5019C6.34049 23.9692 6.0963 28.9398 7.49992 33.567C8.90354 38.1941 11.8681 42.1914 15.8886 44.8777C19.909 47.5641 24.7365 48.7733 29.5485 48.2994C34.3606 47.8254 38.8594 45.6976 42.2785 42.2785L27.5 27.5H48.4Z" fill="#4F4F4F"/>
<path d="M55 27.5C55 32.939 53.3872 38.2558 50.3654 42.7782C47.3437 47.3005 43.0488 50.8253 38.0238 52.9067C32.9988 54.9881 27.4695 55.5327 22.135 54.4716C16.8005 53.4105 11.9005 50.7914 8.05456 46.9454C4.20862 43.0995 1.5895 38.1995 0.528405 32.865C-0.532689 27.5305 0.011903 22.0012 2.09331 16.9762C4.17472 11.9512 7.69947 7.65632 12.2218 4.63459C16.7442 1.61285 22.061 -6.48593e-08 27.5 0V27.5H55Z" fill="url(#paint0_linear_21_1510)"/>
<defs>
<linearGradient id="paint0_linear_21_1510" x1="27.5" y1="0" x2="27.5" y2="55" gradientUnits="userSpaceOnUse">
<stop stop-color="#48B760"/>
<stop offset="1" stop-color="#6BB748" stop-opacity="0.63"/>
</linearGradient>
</defs>
</svg>
