<svg width="400" height="77" viewBox="0 0 400 77" fill="none" xmlns="http://www.w3.org/2000/svg">
<path d="M143.488 43.098C142.583 43.098 141.747 42.888 140.982 42.468C140.226 42.0387 139.624 41.446 139.176 40.69C138.737 39.9247 138.518 39.066 138.518 38.114C138.518 37.162 138.737 36.308 139.176 35.552C139.624 34.796 140.226 34.208 140.982 33.788C141.747 33.3587 142.583 33.144 143.488 33.144C144.403 33.144 145.238 33.3587 145.994 33.788C146.759 34.208 147.361 34.796 147.8 35.552C148.239 36.308 148.458 37.162 148.458 38.114C148.458 39.066 148.239 39.9247 147.8 40.69C147.361 41.446 146.759 42.0387 145.994 42.468C145.238 42.888 144.403 43.098 143.488 43.098ZM143.488 41.712C144.132 41.712 144.706 41.5673 145.21 41.278C145.714 40.9793 146.106 40.5593 146.386 40.018C146.675 39.4673 146.82 38.8327 146.82 38.114C146.82 37.3953 146.675 36.7653 146.386 36.224C146.106 35.6827 145.714 35.2673 145.21 34.978C144.706 34.6887 144.132 34.544 143.488 34.544C142.844 34.544 142.27 34.6887 141.766 34.978C141.262 35.2673 140.865 35.6827 140.576 36.224C140.296 36.7653 140.156 37.3953 140.156 38.114C140.156 38.8327 140.296 39.4673 140.576 40.018C140.865 40.5593 141.262 40.9793 141.766 41.278C142.27 41.5673 142.844 41.712 143.488 41.712ZM152.885 36.406C153.118 36.014 153.426 35.7107 153.809 35.496C154.201 35.272 154.663 35.16 155.195 35.16V36.812H154.789C154.163 36.812 153.687 36.9707 153.361 37.288C153.043 37.6053 152.885 38.156 152.885 38.94V43H151.289V35.286H152.885V36.406ZM162.286 39.136C162.286 38.3427 162.445 37.6473 162.762 37.05C163.089 36.4433 163.537 35.9767 164.106 35.65C164.676 35.3233 165.329 35.16 166.066 35.16C167 35.16 167.77 35.384 168.376 35.832C168.992 36.2707 169.408 36.9007 169.622 37.722H167.9C167.76 37.3393 167.536 37.0407 167.228 36.826C166.92 36.6113 166.533 36.504 166.066 36.504C165.413 36.504 164.89 36.7373 164.498 37.204C164.116 37.6613 163.924 38.3053 163.924 39.136C163.924 39.9667 164.116 40.6153 164.498 41.082C164.89 41.5487 165.413 41.782 166.066 41.782C166.99 41.782 167.602 41.376 167.9 40.564H169.622C169.398 41.348 168.978 41.9733 168.362 42.44C167.746 42.8973 166.981 43.126 166.066 43.126C165.329 43.126 164.676 42.9627 164.106 42.636C163.537 42.3 163.089 41.8333 162.762 41.236C162.445 40.6293 162.286 39.9293 162.286 39.136ZM175.819 43.126C175.091 43.126 174.433 42.9627 173.845 42.636C173.257 42.3 172.795 41.8333 172.459 41.236C172.123 40.6293 171.955 39.9293 171.955 39.136C171.955 38.352 172.127 37.6567 172.473 37.05C172.818 36.4433 173.289 35.9767 173.887 35.65C174.484 35.3233 175.151 35.16 175.889 35.16C176.626 35.16 177.293 35.3233 177.891 35.65C178.488 35.9767 178.959 36.4433 179.305 37.05C179.65 37.6567 179.823 38.352 179.823 39.136C179.823 39.92 179.645 40.6153 179.291 41.222C178.936 41.8287 178.451 42.3 177.835 42.636C177.228 42.9627 176.556 43.126 175.819 43.126ZM175.819 41.74C176.229 41.74 176.612 41.642 176.967 41.446C177.331 41.25 177.625 40.956 177.849 40.564C178.073 40.172 178.185 39.696 178.185 39.136C178.185 38.576 178.077 38.1047 177.863 37.722C177.648 37.33 177.363 37.036 177.009 36.84C176.654 36.644 176.271 36.546 175.861 36.546C175.45 36.546 175.067 36.644 174.713 36.84C174.367 37.036 174.092 37.33 173.887 37.722C173.681 38.1047 173.579 38.576 173.579 39.136C173.579 39.9667 173.789 40.6107 174.209 41.068C174.638 41.516 175.175 41.74 175.819 41.74ZM186.553 35.16C187.159 35.16 187.701 35.286 188.177 35.538C188.662 35.79 189.04 36.1633 189.311 36.658C189.581 37.1527 189.717 37.75 189.717 38.45V43H188.135V38.688C188.135 37.9973 187.962 37.47 187.617 37.106C187.271 36.7327 186.8 36.546 186.203 36.546C185.605 36.546 185.129 36.7327 184.775 37.106C184.429 37.47 184.257 37.9973 184.257 38.688V43H182.661V35.286H184.257V36.168C184.518 35.8507 184.849 35.6033 185.251 35.426C185.661 35.2487 186.095 35.16 186.553 35.16ZM194.874 36.588V40.858C194.874 41.1473 194.94 41.3573 195.07 41.488C195.21 41.6093 195.444 41.67 195.77 41.67H196.75V43H195.49C194.772 43 194.221 42.832 193.838 42.496C193.456 42.16 193.264 41.614 193.264 40.858V36.588H192.354V35.286H193.264V33.368H194.874V35.286H196.75V36.588H194.874ZM200.293 34.264C200.004 34.264 199.761 34.166 199.565 33.97C199.369 33.774 199.271 33.5313 199.271 33.242C199.271 32.9527 199.369 32.71 199.565 32.514C199.761 32.318 200.004 32.22 200.293 32.22C200.573 32.22 200.811 32.318 201.007 32.514C201.203 32.71 201.301 32.9527 201.301 33.242C201.301 33.5313 201.203 33.774 201.007 33.97C200.811 34.166 200.573 34.264 200.293 34.264ZM201.077 35.286V43H199.481V35.286H201.077ZM208.325 35.16C208.931 35.16 209.473 35.286 209.949 35.538C210.434 35.79 210.812 36.1633 211.083 36.658C211.353 37.1527 211.489 37.75 211.489 38.45V43H209.907V38.688C209.907 37.9973 209.734 37.47 209.389 37.106C209.043 36.7327 208.572 36.546 207.975 36.546C207.377 36.546 206.901 36.7327 206.547 37.106C206.201 37.47 206.029 37.9973 206.029 38.688V43H204.433V35.286H206.029V36.168C206.29 35.8507 206.621 35.6033 207.023 35.426C207.433 35.2487 207.867 35.16 208.325 35.16ZM221.771 35.286V43H220.175V42.09C219.923 42.4073 219.591 42.6593 219.181 42.846C218.779 43.0233 218.35 43.112 217.893 43.112C217.286 43.112 216.74 42.986 216.255 42.734C215.779 42.482 215.401 42.1087 215.121 41.614C214.85 41.1193 214.715 40.522 214.715 39.822V35.286H216.297V39.584C216.297 40.2747 216.469 40.8067 216.815 41.18C217.16 41.544 217.631 41.726 218.229 41.726C218.826 41.726 219.297 41.544 219.643 41.18C219.997 40.8067 220.175 40.2747 220.175 39.584V35.286H221.771ZM232.206 38.954C232.206 39.2433 232.188 39.5047 232.15 39.738H226.256C226.303 40.354 226.532 40.8487 226.942 41.222C227.353 41.5953 227.857 41.782 228.454 41.782C229.313 41.782 229.92 41.4227 230.274 40.704H231.996C231.763 41.4133 231.338 41.9967 230.722 42.454C230.116 42.902 229.36 43.126 228.454 43.126C227.717 43.126 227.054 42.9627 226.466 42.636C225.888 42.3 225.43 41.8333 225.094 41.236C224.768 40.6293 224.604 39.9293 224.604 39.136C224.604 38.3427 224.763 37.6473 225.08 37.05C225.407 36.4433 225.86 35.9767 226.438 35.65C227.026 35.3233 227.698 35.16 228.454 35.16C229.182 35.16 229.831 35.3187 230.4 35.636C230.97 35.9533 231.413 36.4013 231.73 36.98C232.048 37.5493 232.206 38.2073 232.206 38.954ZM230.54 38.45C230.531 37.862 230.321 37.3907 229.91 37.036C229.5 36.6813 228.991 36.504 228.384 36.504C227.834 36.504 227.362 36.6813 226.97 37.036C226.578 37.3813 226.345 37.8527 226.27 38.45H230.54ZM250.294 35.286L247.9 43H246.22L244.666 37.302L243.112 43H241.432L239.024 35.286H240.648L242.258 41.488L243.896 35.286H245.562L247.13 41.46L248.726 35.286H250.294ZM253.558 34.264C253.269 34.264 253.026 34.166 252.83 33.97C252.634 33.774 252.536 33.5313 252.536 33.242C252.536 32.9527 252.634 32.71 252.83 32.514C253.026 32.318 253.269 32.22 253.558 32.22C253.838 32.22 254.076 32.318 254.272 32.514C254.468 32.71 254.566 32.9527 254.566 33.242C254.566 33.5313 254.468 33.774 254.272 33.97C254.076 34.166 253.838 34.264 253.558 34.264ZM254.342 35.286V43H252.746V35.286H254.342ZM259.56 36.588V40.858C259.56 41.1473 259.625 41.3573 259.756 41.488C259.896 41.6093 260.129 41.67 260.456 41.67H261.436V43H260.176C259.457 43 258.906 42.832 258.524 42.496C258.141 42.16 257.95 41.614 257.95 40.858V36.588H257.04V35.286H257.95V33.368H259.56V35.286H261.436V36.588H259.56ZM268.157 35.16C268.745 35.16 269.267 35.286 269.725 35.538C270.191 35.79 270.555 36.1633 270.817 36.658C271.087 37.1527 271.223 37.75 271.223 38.45V43H269.641V38.688C269.641 37.9973 269.468 37.47 269.123 37.106C268.777 36.7327 268.306 36.546 267.709 36.546C267.111 36.546 266.635 36.7327 266.281 37.106C265.935 37.47 265.763 37.9973 265.763 38.688V43H264.167V32.64H265.763V36.182C266.033 35.8553 266.374 35.6033 266.785 35.426C267.205 35.2487 267.662 35.16 268.157 35.16Z" fill="#ACADAC"/>
<line y1="37.5" x2="120" y2="37.5" stroke="#DFDFDF"/>
<line x1="280" y1="37.5" x2="400" y2="37.5" stroke="#DFDFDF"/>
</svg>
