<svg width="48" height="48" viewBox="0 0 48 48" fill="none" xmlns="http://www.w3.org/2000/svg">
<path fill-rule="evenodd" clip-rule="evenodd" d="M41.9399 7.45708L40.9529 7.30008L40.6939 6.33408L42.1829 5.93408L41.9409 7.45708H41.9399ZM28.7199 21.2871L27.8689 21.8111L27.8669 21.8091L27.8639 21.8041L27.8539 21.7881L27.8199 21.7311C27.7919 21.6831 27.7499 21.6131 27.6999 21.5241C27.5598 21.2792 27.4248 21.0315 27.2949 20.7811C26.8839 19.9938 26.5251 19.1804 26.2209 18.3461C25.8829 17.4021 25.5929 16.3211 25.5479 15.2751C25.5039 14.2331 25.6979 13.1021 26.4739 12.2151C27.1709 11.4191 28.4849 10.6861 29.8659 10.0521C31.2969 9.39308 32.9809 8.76108 34.5759 8.21408C36.5516 7.53936 38.5472 6.92441 40.5599 6.37008L40.6599 6.34208L40.6949 6.33208L40.9549 7.29908L41.9419 7.45608L41.9359 7.49308L41.9189 7.59908C41.8191 8.21256 41.7144 8.82525 41.6049 9.43708C41.3385 10.9417 41.0478 12.4419 40.7329 13.9371C40.3769 15.6181 39.9629 17.3801 39.5239 18.8551C39.3291 19.5297 39.0998 20.1939 38.8369 20.8451C38.6089 21.3951 38.3389 21.9291 38.0109 22.3051C37.3089 23.1071 36.2159 23.3581 35.2609 23.4221C34.2649 23.4891 33.1609 23.3681 32.1679 23.1921C31.2823 23.0325 30.4052 22.829 29.5399 22.5821C29.1859 22.4824 28.8338 22.3757 28.4839 22.2621L28.4209 22.2401L28.4039 22.2341L28.3989 22.2331H28.3969L28.7209 21.2861L28.7199 21.2871ZM28.7199 21.2871L27.8689 21.8111L28.0569 22.1161L28.3969 22.2331L28.7199 21.2871ZM29.3919 20.4541C30.4157 20.7736 31.458 21.0308 32.5129 21.2241C33.4369 21.3871 34.3609 21.4791 35.1269 21.4271C35.9359 21.3731 36.3419 21.1751 36.5049 20.9891C36.6089 20.8691 36.7789 20.5851 36.9889 20.0791C37.2251 19.4923 37.431 18.8939 37.6059 18.2861C38.0229 16.8861 38.4239 15.1831 38.7759 13.5241C39.1137 11.919 39.4231 10.3081 39.7039 8.69208L39.3949 8.78208C38.2859 9.10908 36.7879 9.57008 35.2249 10.1061C33.6589 10.6431 32.0459 11.2501 30.7009 11.8691C29.3049 12.5111 28.3629 13.0941 27.9789 13.5331C27.6719 13.8831 27.5139 14.4221 27.5469 15.1891C27.5789 15.9521 27.7979 16.8191 28.1039 17.6701C28.4542 18.6326 28.8851 19.5639 29.3919 20.4541ZM10.2629 9.97408L10.0039 10.9401L9.01593 11.0971L8.77393 9.57508L10.2639 9.97508L10.2629 9.97408ZM19.9449 22.3071L20.7959 22.8301L20.7979 22.8281L20.7999 22.8241L20.8079 22.8111L20.8369 22.7631C20.9877 22.5062 21.1318 22.2455 21.2689 21.9811C21.5329 21.4731 21.8699 20.7641 22.1519 19.9801C22.4299 19.2041 22.6719 18.3051 22.7089 17.4291C22.7469 16.5561 22.5849 15.5821 21.9109 14.8121C21.3149 14.1301 20.2119 13.5221 19.0919 13.0061C17.9209 12.4671 16.5459 11.9511 15.2469 11.5061C13.638 10.9566 12.013 10.4557 10.3739 10.0041L10.2919 9.98208L10.2629 9.97408L10.0039 10.9401L9.01593 11.0971L9.02093 11.1271L9.03493 11.2141L9.08893 11.5401C9.35876 13.1576 9.66249 14.7693 9.99993 16.3741C10.2899 17.7421 10.6279 19.1791 10.9859 20.3841C11.1659 20.9861 11.3539 21.5471 11.5509 22.0201C11.7379 22.4701 11.9669 22.9291 12.2549 23.2571C12.8749 23.9671 13.8279 24.1771 14.6169 24.2291C15.4489 24.2851 16.3619 24.1841 17.1769 24.0411C18.2002 23.8574 19.2094 23.6021 20.1969 23.2771L20.2479 23.2601L20.2629 23.2551L20.2679 23.2531L19.9449 22.3071ZM19.9449 22.3071L20.7959 22.8301L20.6079 23.1361L20.2679 23.2531L19.9449 22.3071ZM19.2719 21.4731C19.6627 20.7787 19.9961 20.0537 20.2689 19.3051C20.5139 18.6221 20.6859 17.9371 20.7109 17.3431C20.7369 16.7451 20.6109 16.3631 20.4059 16.1281C20.1229 15.8061 19.3929 15.3461 18.2559 14.8231C17.1719 14.3241 15.8679 13.8331 14.5979 13.3981C13.4916 13.0204 12.3773 12.6663 11.2559 12.3361L11.2599 12.3611C11.4299 13.3211 11.6719 14.6171 11.9569 15.9601C12.2419 17.3061 12.5669 18.6831 12.9029 19.8141C13.0719 20.3801 13.2379 20.8691 13.3979 21.2531C13.5679 21.6601 13.6959 21.8671 13.7599 21.9411C13.8419 22.0341 14.1069 22.1911 14.7509 22.2341C15.3519 22.2741 16.0859 22.2021 16.8299 22.0711C17.6556 21.9223 18.4711 21.7222 19.2719 21.4721V21.4731ZM17.0819 31.0071C16.8279 31.0211 16.7039 31.0571 16.6719 31.0711C16.2189 31.2761 14.8429 31.7561 13.6549 32.1611C13.0449 32.3701 12.4599 32.5661 12.0279 32.7111L11.9999 32.7211V38.1241C12.1759 38.1161 12.3649 38.1091 12.5579 38.1021C13.3859 38.0721 14.3709 38.0421 14.7979 38.0601C16.5899 38.1311 17.9359 38.5551 19.1819 38.9481L19.2089 38.9571C20.3769 39.3251 21.4589 39.6631 22.8759 39.7701C23.2759 39.8001 23.6649 39.8391 24.0279 39.8751H24.0329C25.4269 40.0151 26.3449 40.0851 27.0559 39.8271C27.6089 39.6261 29.6339 38.6871 31.6759 37.6601C32.6859 37.1521 33.6759 36.6351 34.4629 36.1921C34.8579 35.9701 35.1929 35.7721 35.4499 35.6061C35.5779 35.5231 35.6799 35.4531 35.7579 35.3961C35.7886 35.3736 35.8186 35.3503 35.8479 35.3261L35.8759 35.3021C35.9759 35.2011 36.0819 34.8491 35.9099 34.5181C35.829 34.3633 35.6952 34.2427 35.5329 34.1781C35.3329 34.0911 34.9929 34.0241 34.4529 34.1131C33.2349 34.3131 31.7799 34.8991 30.3269 35.4901L30.3069 35.4991C29.5929 35.7891 28.8769 36.0801 28.2419 36.2921C27.6319 36.4951 26.9549 36.6771 26.3649 36.6421C25.5549 36.5921 24.1339 36.3821 22.9619 36.1921C22.2884 36.0832 21.6157 35.9692 20.9439 35.8501L20.8139 35.8271L20.7679 35.8181L20.9579 33.8341L25.5279 33.8891H25.5379C25.5913 33.8833 25.6441 33.8733 25.6959 33.8591C25.8539 33.8191 26.1249 33.7201 26.4659 33.4791C26.5709 33.4041 26.7089 33.2661 26.8379 33.0811C26.8878 33.0086 26.9333 32.9331 26.9739 32.8551C26.4167 32.8196 25.8631 32.7414 25.3179 32.6211C25.021 32.5564 24.7265 32.4814 24.4349 32.3961L24.4009 32.3861L18.8039 31.1401L18.7509 31.1311C18.453 31.0816 18.153 31.0449 17.8519 31.0211C17.5958 30.9998 17.3386 30.9952 17.0819 31.0071ZM18.9999 30.1601L19.1809 29.1771L19.1989 29.1801L24.9169 30.4521L24.9589 30.4651L24.9669 30.4681L25.0049 30.4791L25.1629 30.5241C25.3019 30.5621 25.5019 30.6141 25.7399 30.6661C26.2259 30.7711 26.8339 30.8681 27.3959 30.8681C27.9589 30.8681 28.5709 31.0781 28.9009 31.6761C29.1829 32.1881 29.1129 32.7421 29.0139 33.1081C28.922 33.4317 28.785 33.7407 28.6069 34.0261C28.9109 33.9061 29.2339 33.7761 29.5729 33.6381L29.6349 33.6121C31.0129 33.0521 32.6649 32.3801 34.1279 32.1391C35.8279 31.8611 37.1029 32.4711 37.6859 33.5991C38.1999 34.5941 38.0859 35.9061 37.3009 36.7041C37.1039 36.9041 36.8109 37.1071 36.5309 37.2881C36.1743 37.5138 35.8115 37.7296 35.4429 37.9351C34.6179 38.3991 33.5969 38.9321 32.5729 39.4471C30.5509 40.4641 28.4209 41.4591 27.7369 41.7071C26.5509 42.1371 25.1789 42.0001 23.9599 41.8781L23.8329 41.8651C23.464 41.8273 23.0947 41.7939 22.7249 41.7651C21.0649 41.6391 19.7929 41.2381 18.6309 40.8721L18.6059 40.8641C17.3559 40.4701 16.2299 40.1191 14.7179 40.0581C14.3859 40.0451 13.4919 40.0691 12.6299 40.1011C12.1445 40.1187 11.6592 40.1384 11.1739 40.1601L11.0449 40.1661L9.99893 40.2141V31.2781L10.8759 30.9871C11.5875 30.7506 12.2982 30.5113 13.0079 30.2691C14.2519 29.8441 15.5059 29.4031 15.8479 29.2491C16.2149 29.0831 16.6319 29.0291 16.9659 29.0091C17.3209 28.9891 17.6859 29.0041 18.0049 29.0281C18.3889 29.0581 18.7713 29.1059 19.1509 29.1711L19.1719 29.1751H19.1779L19.1799 29.1761H19.1819L18.9999 30.1601Z" fill="#545454"/>
<path fill-rule="evenodd" clip-rule="evenodd" d="M35.15 13.2402C35.2498 13.3255 35.3318 13.4297 35.3913 13.5468C35.4509 13.6638 35.4868 13.7914 35.497 13.9224C35.5072 14.0533 35.4915 14.185 35.4509 14.3098C35.4102 14.4347 35.3453 14.5504 35.2599 14.6502C32.2789 18.1282 28.568 23.2252 26.93 27.3682C26.8816 27.4903 26.8097 27.6017 26.7183 27.696C26.6269 27.7904 26.5179 27.8658 26.3973 27.918C26.2768 27.9702 26.1472 27.9981 26.0159 28.0002C25.8845 28.0023 25.7541 27.9785 25.632 27.9302C25.5098 27.8818 25.3984 27.8099 25.3041 27.7185C25.2097 27.6272 25.1343 27.5181 25.0821 27.3976C25.0299 27.277 25.002 27.1474 24.9999 27.0161C24.9978 26.8847 25.0216 26.7543 25.07 26.6322C26.833 22.1732 30.721 16.8722 33.74 13.3492C33.9126 13.1479 34.1582 13.0234 34.4226 13.0032C34.687 12.9829 34.9486 13.0685 35.15 13.2412V13.2402ZM15.38 16.4482C15.2768 16.5296 15.1908 16.6305 15.1266 16.7451C15.0625 16.8598 15.0217 16.986 15.0063 17.1165C14.991 17.247 15.0016 17.3792 15.0373 17.5056C15.0731 17.632 15.1335 17.7501 15.215 17.8532C17.457 20.6982 19.905 24.3392 21.0669 27.3592C21.1667 27.6002 21.3567 27.7927 21.5964 27.8956C21.8361 27.9985 22.1066 28.0037 22.35 27.91C22.5935 27.8163 22.7907 27.6312 22.8996 27.3942C23.0085 27.1571 23.0205 26.8869 22.933 26.6412C21.662 23.3372 19.0649 19.5062 16.785 16.6152C16.6209 16.4069 16.3808 16.2723 16.1175 16.241C15.8542 16.2097 15.5893 16.2842 15.3809 16.4482H15.38Z" fill="#545454"/>
<path d="M6 29H12V42H6V29Z" fill="#545454"/>
</svg>
