<svg width="84" height="84" viewBox="0 0 84 84" fill="none" xmlns="http://www.w3.org/2000/svg">
<rect width="84" height="84" rx="42" fill="url(#paint0_linear_469_4551)"/>
<path d="M34.9365 17.5896L34.4578 18.1715L34.6567 18.3323C34.8482 18.4931 34.8555 18.5237 34.8187 19.0673C34.804 19.3812 34.7819 19.6492 34.7819 19.6568C34.7819 19.6645 34.6935 19.5803 34.583 19.4731C34.4799 19.3582 34.421 19.2587 34.4578 19.2434C34.7229 19.1439 34.7229 19.0826 34.4799 18.8453C34.1042 18.4931 33.898 18.5467 33.7875 19.006C33.7507 19.1668 33.7949 19.3123 33.9938 19.6415C34.2368 20.0473 34.2442 20.0703 34.1632 20.4454C34.119 20.6598 34.0527 20.8359 34.0232 20.8359C33.9938 20.8359 33.8465 20.7057 33.6991 20.5603C33.4414 20.3 33.434 20.2846 33.5887 20.2387C33.7802 20.1928 33.7875 20.1545 33.6329 19.764C33.4487 19.2817 32.9479 19.2434 32.8006 19.6951C32.6754 20.0703 32.6974 20.1928 33.0142 20.6368L33.3161 21.0579L33.2351 21.5403L33.1541 22.0226L32.889 21.992C32.6533 21.9614 32.6385 21.946 32.7416 21.8618C32.9037 21.7393 32.9037 21.7087 32.668 21.3948C32.3586 20.9967 32.0346 21.0503 31.9093 21.525C31.7915 21.9307 31.8136 21.992 32.1966 22.4284L32.5575 22.8418L32.2703 23.2935C31.9683 23.7529 31.9388 23.7682 31.5484 23.6917C31.3496 23.6457 31.3201 23.6075 31.3201 23.4007C31.3201 23.2629 31.2833 23.1175 31.2317 23.0639C31.0771 22.9031 30.7382 22.9567 30.532 23.171C30.37 23.3395 30.3479 23.416 30.3847 23.707C30.4289 24.1281 30.5909 24.3271 30.9813 24.4496C31.2686 24.5339 31.2833 24.5568 31.2833 24.8478C31.2833 25.1081 31.3054 25.154 31.4601 25.177C31.5926 25.2 31.6221 25.2382 31.6 25.3837C31.5705 25.5215 31.6 25.5751 31.7399 25.6134C31.8725 25.644 31.9093 25.69 31.8725 25.8048C31.8357 25.935 31.8578 25.9579 32.0493 25.9579H32.2776V27.1064V28.2548H32.0419C31.8578 28.2548 31.7252 28.3314 31.4674 28.5993L31.136 28.9439L30.8119 28.5534C30.532 28.2165 30.5025 28.1476 30.6057 28.0864C30.6941 28.0404 30.7161 27.9562 30.6793 27.7725C30.6278 27.4509 30.4584 27.3131 30.1858 27.3667C29.7807 27.4509 29.6997 27.604 29.6997 28.2701V28.875L29.9575 28.9898C30.0974 29.051 30.2153 29.1276 30.2153 29.1659C30.2153 29.2501 29.7881 29.6329 29.6924 29.6329C29.6555 29.6329 29.6261 29.7171 29.6261 29.8243C29.6261 30.0004 29.604 30.0157 29.2652 30.0157C28.9116 30.0157 28.9116 30.0157 28.8601 30.299C28.7938 30.7354 28.8011 30.7814 28.9632 30.7814C29.0663 30.7814 29.1105 30.835 29.1105 30.9651C29.1105 31.08 29.162 31.1642 29.2578 31.1871C29.3462 31.2101 29.4051 31.2943 29.4051 31.3862C29.4051 31.5393 29.4419 31.547 29.9943 31.547C30.5688 31.547 30.5836 31.5546 30.4952 31.7001C30.4436 31.7843 30.23 31.9068 30.0238 31.9681C29.8176 32.0293 29.5966 32.1442 29.5229 32.2284C29.3462 32.4351 29.3535 32.8639 29.5524 33.2084L29.7144 33.4917L29.4346 33.7596L29.1547 34.0276L29.0737 33.5529C28.9705 32.994 28.8748 32.8639 28.3076 32.55C27.9246 32.3356 27.8731 32.282 27.8436 32.0446C27.8289 31.8915 27.8289 31.7537 27.851 31.7384C27.8657 31.7154 28.0278 31.7001 28.2119 31.7001C28.5286 31.7001 28.536 31.6925 28.4844 31.4857C28.3666 30.9957 28.0941 30.7814 27.5785 30.7814C27.2323 30.7814 27.0187 30.9345 26.7462 31.3785C26.5399 31.7154 26.5326 31.769 26.5326 32.6189V33.507L26.864 33.8439C27.0482 34.0276 27.1955 34.2114 27.1955 34.242C27.1955 34.2726 27.0408 34.3032 26.8493 34.3032H26.4958L26.2232 34.8315C26.0686 35.1225 25.9433 35.3904 25.9433 35.421C25.9433 35.4593 26.2085 35.49 26.5252 35.49C27.247 35.49 27.4164 35.6125 27.4164 36.1025C27.4164 36.2785 27.4385 36.6384 27.4606 36.8987L27.5122 37.3657H27.8068C28.0941 37.3657 28.0941 37.3734 28.0572 37.5954C28.013 37.8175 28.0204 37.8251 28.2635 37.8251C28.4918 37.8251 28.5212 37.8481 28.5212 38.0165C28.5212 38.1543 28.5802 38.2309 28.7643 38.3075C29.0737 38.4453 29.2283 38.6367 29.3683 39.0425C29.5082 39.4559 29.5082 39.4329 29.3388 39.4329C29.1252 39.4329 28.536 40.1985 28.5065 40.5125C28.4844 40.7421 28.455 40.7804 28.2266 40.811C28.0278 40.8417 27.9615 40.8876 27.9467 41.0331L27.9173 41.2092L26.3632 41.1862L24.8017 41.1556L24.4187 41.4006L24.0357 41.6456L23.9915 41.3623C23.8074 40.1985 23.6748 39.9382 22.9898 39.4253C22.6436 39.1573 22.5552 39.0501 22.5552 38.8817C22.5552 38.675 22.57 38.6673 22.8941 38.6673H23.2402L23.1887 38.4146C23.1224 38.0778 22.8057 37.7715 22.4006 37.6643C22.1059 37.5801 22.0323 37.5878 21.7819 37.7179C21.3105 37.9629 21.2295 38.2232 21.2295 39.4865V40.5814H21.4062C21.6419 40.5814 21.9439 40.8646 22.0102 41.1326L22.0544 41.347H21.5904C21.1853 41.3546 21.0822 41.3776 20.8686 41.569C20.6623 41.7451 20.6181 41.8446 20.5813 42.1739L20.5445 42.572H21.1484C21.6935 42.572 21.7671 42.5873 21.9292 42.7634C22.1207 42.9548 22.128 43.0084 22.1428 44.1798L22.1501 44.6009L22.4742 44.6239L22.7909 44.6468L22.7541 44.9148C22.7099 45.1751 22.7099 45.1751 23.0045 45.1751C23.2844 45.1751 23.2918 45.1828 23.2918 45.4354C23.2918 45.6881 23.3139 45.7187 23.9547 46.0709C24.6986 46.4843 24.6691 46.4231 24.5734 47.3878L24.5218 47.8548H23.1739C21.8997 47.8548 21.8187 47.8471 21.8187 47.7093C21.8187 47.4796 21.5535 47.1964 21.2516 47.1045C21.0895 47.0585 20.8317 46.8978 20.6697 46.7523C20.4266 46.5303 20.3972 46.469 20.4635 46.3465C20.5076 46.27 20.6476 46.201 20.7802 46.1857C20.9864 46.1628 21.0085 46.1398 20.9643 45.9943C20.8612 45.6268 20.4929 45.4048 19.9994 45.4048C19.5059 45.4048 19.2924 45.6498 19.1671 46.3312C19.1008 46.6834 19.1156 46.7753 19.2703 47.1351C19.3734 47.3725 19.6533 47.7476 19.9405 48.0539C20.3824 48.5209 20.4266 48.5975 20.3898 48.8042C20.3309 49.0951 20.2425 49.1564 19.8595 49.1564C19.4839 49.1564 19.2555 48.9803 19.1966 48.6434C19.1524 48.429 19.1745 48.3831 19.3439 48.3065C19.7343 48.1151 19.4765 47.7017 18.9609 47.7017C18.7105 47.7017 18.6147 47.7476 18.3864 47.985C18.1212 48.2759 18.1212 48.2759 18.1654 48.7659C18.2096 49.187 18.2538 49.3095 18.4969 49.6081C18.6516 49.7995 18.8504 50.0292 18.9388 50.1057C19.064 50.2282 19.0935 50.3431 19.0935 50.7412V51.2235H19.3218C19.4839 51.2235 19.5575 51.2618 19.587 51.3767C19.6091 51.4609 19.6901 51.5298 19.7637 51.5298C19.8669 51.5298 19.9037 51.5834 19.9037 51.7212C19.9037 51.8896 19.9258 51.905 20.1246 51.859L20.3456 51.8131V55.0746V58.3362L19.6312 58.3592C18.9241 58.3821 18.9093 58.3821 18.8873 58.5735C18.8799 58.6807 18.8504 58.9181 18.8283 59.1018L18.7841 59.4387L18.3275 59.3928C17.8708 59.3468 17.8561 59.3545 16.9354 59.8521L16 60.3498V60.8015V61.2532H25.7224H35.4448V39.1267C35.4448 26.9532 35.4374 17.0001 35.43 17.0001C35.4153 17.0001 35.1943 17.2681 34.9365 17.5896Z" fill="white"/>
<path d="M48.5552 39.1114V61.2532H58.2776H67.9999V60.8015V60.3498L67.0793 59.8445L66.1659 59.3468L65.6872 59.3928L65.2084 59.4387L65.1569 58.8875L65.1053 58.3439H64.3835H63.6543L63.6691 55.1053L63.6912 51.8743L63.8974 51.8896C64.0594 51.8973 64.0963 51.8743 64.0963 51.7135C64.0963 51.5834 64.1404 51.5298 64.2362 51.5298C64.3098 51.5298 64.3909 51.4609 64.413 51.3767C64.4424 51.2695 64.5161 51.2235 64.6708 51.2235C64.8623 51.2235 64.8917 51.1929 64.9359 50.9403C64.958 50.7795 64.9801 50.5421 64.9801 50.4196C64.9801 50.2512 65.0759 50.0904 65.3557 49.7918C65.7461 49.3707 65.864 49.0875 65.864 48.5668C65.864 48.3065 65.8198 48.1993 65.6135 47.9773C65.4073 47.7476 65.3189 47.7017 65.0611 47.7017C64.575 47.7017 64.2436 48.161 64.6487 48.2682C64.7886 48.3065 64.8328 48.3678 64.8328 48.5362C64.8328 48.896 64.6192 49.0951 64.192 49.1334C63.8679 49.1717 63.809 49.1564 63.6985 48.9956C63.6322 48.896 63.5807 48.7735 63.5807 48.72C63.5807 48.6664 63.8164 48.3525 64.111 48.0309C64.7518 47.3035 64.9433 46.9054 64.8696 46.4154C64.7665 45.7187 64.494 45.4048 63.9858 45.4048C63.7059 45.4048 63.2419 45.6268 63.124 45.8182C62.9914 46.0173 63.0651 46.1704 63.2787 46.1704C63.5291 46.1704 63.6396 46.3771 63.5144 46.6221C63.4407 46.76 62.7557 47.1657 62.5863 47.1657C62.4538 47.1657 62.2696 47.4031 62.2181 47.6404L62.1665 47.8548H60.8113H59.456V47.1351V46.4154L60.0821 46.0632C60.6419 45.7417 60.7081 45.6804 60.7523 45.4431C60.7965 45.1981 60.8186 45.1751 61.0543 45.1751C61.3121 45.1751 61.3121 45.1751 61.2679 44.9071L61.2164 44.6392H61.5552H61.8866V43.797C61.8866 43.0007 61.894 42.9395 62.0708 42.7634C62.2328 42.595 62.3064 42.572 62.8441 42.572H63.4334V42.2045C63.4334 41.8753 63.4039 41.7987 63.1756 41.592C62.9472 41.37 62.881 41.347 62.439 41.347C62.1739 41.347 61.9603 41.3164 61.9603 41.2704C61.9603 40.9795 62.3506 40.5814 62.6453 40.5814C62.7263 40.5814 62.7557 40.3746 62.7926 39.6243C62.8515 38.3381 62.7263 37.9246 62.2033 37.7026C61.7172 37.4882 61.1353 37.7179 60.8923 38.2079C60.7008 38.5907 60.745 38.6673 61.1132 38.6673C61.43 38.6673 61.4447 38.675 61.4447 38.897C61.4447 39.0731 61.3784 39.165 61.1353 39.3487C60.4209 39.854 60.1631 40.2828 60.0747 41.102C60.0453 41.3776 59.9937 41.5767 59.9421 41.5767C59.898 41.5767 59.7285 41.4848 59.5665 41.37L59.2719 41.1632L57.6736 41.1862L56.0679 41.2092V41.0101C56.0679 40.834 56.0385 40.811 55.8101 40.811C55.5671 40.811 55.5523 40.7957 55.5081 40.5125C55.4566 40.1756 54.9115 39.4635 54.6759 39.4176C54.5433 39.3946 54.5433 39.3717 54.6317 39.096C54.779 38.6596 54.9778 38.4146 55.2504 38.3304C55.4345 38.2768 55.4787 38.2232 55.4787 38.0471C55.4787 37.8404 55.5008 37.8251 55.7438 37.8251C56.0016 37.8251 56.009 37.8175 55.9722 37.5954C55.928 37.3734 55.9353 37.3657 56.2079 37.3657C56.554 37.3657 56.5835 37.2968 56.5835 36.3934C56.5835 35.8039 56.5982 35.7503 56.7676 35.6354C56.8781 35.5589 57.1875 35.49 57.5336 35.4593L58.1008 35.4134L57.8135 34.8545L57.5263 34.3032H57.2022C57.0254 34.3032 56.8781 34.2726 56.8781 34.2343C56.8781 34.2037 57.0107 34.0123 57.1727 33.8209L57.4674 33.4764V32.6265C57.4674 31.6695 57.3642 31.3479 56.9518 30.9804C56.6793 30.7507 56.2594 30.7125 55.9206 30.8962C55.6923 31.0187 55.6039 31.1489 55.5229 31.4857C55.4787 31.6925 55.4861 31.7001 55.8028 31.7001C55.9869 31.7001 56.1489 31.7307 56.171 31.7614C56.1931 31.7996 56.1931 31.9528 56.1637 32.1059C56.1342 32.2973 56.0827 32.3892 55.9648 32.4198C55.6776 32.4964 55.1251 32.9251 55.0515 33.1395C55.0073 33.2543 54.9484 33.4917 54.9115 33.6754L54.8526 34.0123L54.5727 33.752L54.2929 33.4993L54.4844 33.1242C54.5875 32.9175 54.6685 32.6878 54.6685 32.6189C54.6685 32.3662 54.3739 32.0906 53.9909 31.9681C53.6373 31.8609 53.4974 31.7537 53.49 31.6006C53.49 31.57 53.7404 31.547 54.0424 31.547C54.5433 31.547 54.5948 31.5317 54.5948 31.3939C54.5948 31.3096 54.6243 31.2407 54.6611 31.2407C54.7863 31.2407 54.9705 30.9957 54.9336 30.8885C54.9115 30.8196 54.9484 30.7814 55.0441 30.7814C55.1767 30.7814 55.1914 30.7431 55.1693 30.4139L55.1472 30.054L54.8011 30.031C54.5138 30.0081 54.4475 29.9775 54.4475 29.8626C54.4475 29.786 54.337 29.6482 54.1971 29.564C53.7552 29.2807 53.7331 29.1965 54.0351 29.0128L54.3002 28.852V28.2701C54.3002 27.627 54.2781 27.5581 54.0203 27.4203C53.7552 27.2748 53.4237 27.382 53.3722 27.627C53.3501 27.7418 53.3206 27.8796 53.3059 27.9256C53.2912 27.9792 53.328 28.0557 53.3943 28.094C53.4974 28.1476 53.4679 28.2165 53.188 28.561L52.864 28.9592L52.5546 28.607C52.2968 28.316 52.2011 28.2548 51.9875 28.2548H51.7223V27.1064V25.9579H51.9433C52.12 25.9579 52.1642 25.9273 52.1642 25.7971C52.1642 25.6976 52.2232 25.621 52.3189 25.5981C52.4368 25.5675 52.4589 25.5139 52.4294 25.376C52.3852 25.2153 52.4073 25.1923 52.5693 25.1923C52.7387 25.1923 52.7535 25.1617 52.7535 24.8631C52.7535 24.5415 52.7608 24.5262 53.0407 24.4343C53.6152 24.2582 53.8436 23.5615 53.4532 23.1634C53.107 22.7959 52.6798 22.9643 52.6798 23.4543C52.6798 23.5998 52.6356 23.6534 52.4515 23.6917C52.0759 23.7682 52.0611 23.7606 51.7444 23.2935L51.4424 22.8495L51.8033 22.4514C52.0685 22.1604 52.1642 21.992 52.1642 21.8312C52.1642 21.4637 52.039 21.2187 51.8254 21.1651C51.6708 21.1268 51.5824 21.1651 51.3688 21.3871C51.1183 21.6551 51.111 21.6704 51.2362 21.8082C51.354 21.9537 51.354 21.9614 51.111 21.992L50.8532 22.0226L50.7795 21.5556L50.7059 21.0962L50.9931 20.6598C51.3319 20.1545 51.3614 19.8635 51.1036 19.5496C50.9489 19.3659 50.9048 19.3506 50.7206 19.4118C50.588 19.4578 50.4555 19.5956 50.3818 19.7564C50.2124 20.1085 50.2198 20.2157 50.3965 20.2157C50.6101 20.2157 50.5807 20.3 50.2566 20.6292L49.9767 20.9125L49.8883 20.5679C49.7705 20.0779 49.7778 20.0167 50.0283 19.6415C50.2787 19.2664 50.3082 19.029 50.1314 18.7764C49.9767 18.539 49.7999 18.5696 49.5127 18.8759C49.3727 19.0214 49.2917 19.1439 49.3359 19.1439C49.3727 19.1439 49.4464 19.1745 49.498 19.2128C49.579 19.2587 49.5569 19.32 49.4096 19.4731L49.2181 19.6721V19.0596C49.2181 18.5084 49.2402 18.4242 49.3801 18.3017L49.5495 18.1639L49.1518 17.6739C48.9308 17.4135 48.7098 17.1379 48.6509 17.0767C48.5699 16.9848 48.5552 20.6751 48.5552 39.1114Z" fill="white"/>
<path d="M16 62.5931V63.1673H42H68V62.5931V62.0189H42H16V62.5931Z" fill="white"/>
<path d="M16 64.1626C16 64.3157 16.0516 64.3157 42 64.3157C67.9484 64.3157 68 64.3157 68 64.1626C68 64.0095 67.9484 64.0095 42 64.0095C16.0516 64.0095 16 64.0095 16 64.1626Z" fill="white"/>
<path d="M16 65.4258V66H42H68V65.4258V64.8516H42H16V65.4258Z" fill="white"/>
<defs>
<linearGradient id="paint0_linear_469_4551" x1="42" y1="0" x2="42" y2="84" gradientUnits="userSpaceOnUse">
<stop stop-color="#A988F9"/>
<stop offset="1" stop-color="#6D3AE9"/>
</linearGradient>
</defs>
</svg>
