<svg width="24" height="21" viewBox="0 0 24 21" fill="none" xmlns="http://www.w3.org/2000/svg">
<path d="M1 0.45451C0.734784 0.45451 0.48043 0.559867 0.292893 0.747403C0.105357 0.93494 0 1.18929 0 1.45451C0 1.71973 0.105357 1.97408 0.292893 2.16162C0.48043 2.34915 0.734784 2.45451 1 2.45451H3.22L5.844 12.9545C6.067 13.8445 6.864 14.4545 7.781 14.4545H19.251C20.154 14.4545 20.921 13.8545 21.158 12.9845L23.75 3.45451H7L7.5 5.45451H21.156L19.25 12.4545H7.78L5.157 1.95451C5.04865 1.52374 4.79888 1.14179 4.44768 0.869824C4.09648 0.597859 3.66418 0.451615 3.22 0.45451H1ZM18 14.4545C16.355 14.4545 15 15.8095 15 17.4545C15 19.0995 16.355 20.4545 18 20.4545C19.645 20.4545 21 19.0995 21 17.4545C21 15.8095 19.645 14.4545 18 14.4545ZM9 14.4545C7.355 14.4545 6 15.8095 6 17.4545C6 19.0995 7.355 20.4545 9 20.4545C10.645 20.4545 12 19.0995 12 17.4545C12 15.8095 10.645 14.4545 9 14.4545ZM9 16.4545C9.564 16.4545 10 16.8905 10 17.4545C10 18.0185 9.564 18.4545 9 18.4545C8.436 18.4545 8 18.0185 8 17.4545C8 16.8905 8.436 16.4545 9 16.4545ZM18 16.4545C18.564 16.4545 19 16.8905 19 17.4545C19 18.0185 18.564 18.4545 18 18.4545C17.436 18.4545 17 18.0185 17 17.4545C17 16.8905 17.436 16.4545 18 16.4545Z" fill="white"/>
</svg>
