<svg width="38" height="38" viewBox="0 0 38 38" fill="none" xmlns="http://www.w3.org/2000/svg">
<path d="M13.0625 34.4375H24.9375" stroke="#6D737A" stroke-width="1.5" stroke-linecap="round" stroke-linejoin="round"/>
<path d="M11.6822 24.789C10.2684 23.6897 9.12342 22.2831 8.33388 20.6758C7.54435 19.0684 7.13099 17.3024 7.12513 15.5116C7.09544 9.06945 12.2759 3.71086 18.7181 3.56242C21.2113 3.50331 23.6599 4.23069 25.7166 5.64138C27.7732 7.05208 29.3335 9.07448 30.1761 11.4218C31.0188 13.769 31.101 16.3221 30.4112 18.7187C29.7214 21.1154 28.2945 23.234 26.3329 24.7741C25.8996 25.1091 25.5486 25.5387 25.3068 26.0301C25.065 26.5214 24.9387 27.0616 24.9376 27.6093V28.4999C24.9376 28.8149 24.8125 29.1169 24.5898 29.3396C24.3671 29.5623 24.0651 29.6874 23.7501 29.6874H14.2501C13.9352 29.6874 13.6331 29.5623 13.4104 29.3396C13.1877 29.1169 13.0626 28.8149 13.0626 28.4999V27.6093C13.0589 27.0657 12.9329 26.53 12.6939 26.0418C12.4549 25.5535 12.1091 25.1254 11.6822 24.789V24.789Z" stroke="#6D737A" stroke-width="1.5" stroke-linecap="round" stroke-linejoin="round"/>
<path d="M20.2021 8.43115C21.6535 8.67719 22.9928 9.36765 24.035 10.4072C25.0773 11.4468 25.7712 12.7843 26.0209 14.2351" stroke="#6D737A" stroke-width="1.5" stroke-linecap="round" stroke-linejoin="round"/>
</svg>
