<svg width="48" height="48" viewBox="0 0 48 48" fill="none" xmlns="http://www.w3.org/2000/svg">
<path fill-rule="evenodd" clip-rule="evenodd" d="M19.5 14C18.4391 14 17.4217 13.5786 16.6716 12.8284C15.9214 12.0783 15.5 11.0609 15.5 10C15.5 8.93913 15.9214 7.92172 16.6716 7.17157C17.4217 6.42143 18.4391 6 19.5 6C20.5609 6 21.5783 6.42143 22.3284 7.17157C23.0786 7.92172 23.5 8.93913 23.5 10C23.5 11.0609 23.0786 12.0783 22.3284 12.8284C21.5783 13.5786 20.5609 14 19.5 14ZM19.5 12C18.9696 12 18.4609 11.7893 18.0858 11.4142C17.7107 11.0391 17.5 10.5304 17.5 10C17.5 9.46957 17.7107 8.96086 18.0858 8.58579C18.4609 8.21071 18.9696 8 19.5 8C20.0304 8 20.5391 8.21071 20.9142 8.58579C21.2893 8.96086 21.5 9.46957 21.5 10C21.5 10.5304 21.2893 11.0391 20.9142 11.4142C20.5391 11.7893 20.0304 12 19.5 12Z" fill="#5A5A5A"/>
<path d="M13 22C13 21.4696 13.2107 20.9609 13.5858 20.5858C13.9609 20.2107 14.4696 20 15 20V24C14.4696 24 13.9609 23.7893 13.5858 23.4142C13.2107 23.0391 13 22.5304 13 22Z" fill="#5A5A5A"/>
<path fill-rule="evenodd" clip-rule="evenodd" d="M33 21.236C32.4505 21.7289 31.7381 22.001 31 22H26V39C26 39.7957 25.6839 40.5587 25.1213 41.1213C24.5587 41.6839 23.7956 42 23 42C22.2044 42 21.4413 41.6839 20.8787 41.1213C20.3161 40.5587 20 39.7957 20 39V31H19V39C19 39.701 18.76 40.346 18.356 40.857C17.97 41.3466 17.4411 41.7038 16.8427 41.879C16.2444 42.0541 15.6063 42.0385 15.0173 41.8342C14.4282 41.63 13.9174 41.2473 13.5559 40.7394C13.1943 40.2314 13 39.6235 13 39V27.718C11.437 26.998 9 24.91 9 21.571C9 17.364 12.871 16 13.985 16H31C31.768 16 32.47 16.289 33 16.764V15H32C31.2044 15 30.4413 14.6839 29.8787 14.1213C29.3161 13.5587 29 12.7956 29 12V6H31V12C31 12.2652 31.1054 12.5196 31.2929 12.7071C31.4804 12.8946 31.7348 13 32 13H33V6H35V13H36C36.2652 13 36.5196 12.8946 36.7071 12.7071C36.8946 12.5196 37 12.2652 37 12V6H39V12C39 12.7956 38.6839 13.5587 38.1213 14.1213C37.5587 14.6839 36.7956 15 36 15H35V41C35 41.2652 34.8946 41.5196 34.7071 41.7071C34.5196 41.8946 34.2652 42 34 42C33.7348 42 33.4804 41.8946 33.2929 41.7071C33.1054 41.5196 33 41.2652 33 41V21.236ZM13.837 25.901L15 26.437V39C15 39.2652 15.1054 39.5196 15.2929 39.7071C15.4804 39.8946 15.7348 40 16 40C16.2652 40 16.5196 39.8946 16.7071 39.7071C16.8946 39.5196 17 39.2652 17 39V29H22V39C22 39.2652 22.1054 39.5196 22.2929 39.7071C22.4804 39.8946 22.7348 40 23 40C23.2652 40 23.5196 39.8946 23.7071 39.7071C23.8946 39.5196 24 39.2652 24 39V20H31C31.2652 20 31.5196 19.8946 31.7071 19.7071C31.8946 19.5196 32 19.2652 32 19C32 18.7348 31.8946 18.4804 31.7071 18.2929C31.5196 18.1054 31.2652 18 31 18H13.985C13.993 18 13.991 18 13.977 18.003C13.928 18.01 13.737 18.04 13.434 18.153C13.029 18.3049 12.6493 18.5173 12.308 18.783C11.605 19.333 11 20.177 11 21.571C11 23.854 12.693 25.374 13.837 25.901Z" fill="#5A5A5A"/>
</svg>
