<svg width="42" height="42" viewBox="0 0 42 42" fill="none" xmlns="http://www.w3.org/2000/svg">
<g clip-path="url(#clip0_97_3742)">
<path fill-rule="evenodd" clip-rule="evenodd" d="M3.0625 1.75C2.25027 1.75 1.47132 2.07266 0.896985 2.64699C0.322655 3.22132 0 4.00027 0 4.8125L0 21.4375C0 23.128 1.372 24.5 3.0625 24.5H5.25V27.2003C5.25018 27.7044 5.39981 28.1972 5.67999 28.6163C5.96018 29.0355 6.35833 29.3622 6.82412 29.5551C7.28992 29.748 7.80245 29.7985 8.29694 29.7002C8.79142 29.6019 9.24566 29.3592 9.60225 29.0028L14.1067 24.5H24.9375C25.7497 24.5 26.5287 24.1773 27.103 23.603C27.6773 23.0287 28 22.2497 28 21.4375V4.8125C28 4.00027 27.6773 3.22132 27.103 2.64699C26.5287 2.07266 25.7497 1.75 24.9375 1.75H3.0625ZM2.625 4.8125C2.625 4.69647 2.67109 4.58519 2.75314 4.50314C2.83519 4.42109 2.94647 4.375 3.0625 4.375H24.9375C25.0535 4.375 25.1648 4.42109 25.2469 4.50314C25.3289 4.58519 25.375 4.69647 25.375 4.8125V21.4375C25.375 21.5535 25.3289 21.6648 25.2469 21.7469C25.1648 21.8289 25.0535 21.875 24.9375 21.875H13.5625C13.2145 21.8753 12.8809 22.0138 12.635 22.26L7.875 27.02V23.1875C7.875 22.8394 7.73672 22.5056 7.49058 22.2594C7.24444 22.0133 6.9106 21.875 6.5625 21.875H3.0625C2.94647 21.875 2.83519 21.8289 2.75314 21.7469C2.67109 21.6648 2.625 21.5535 2.625 21.4375V4.8125Z" fill="white"/>
<path d="M39.375 15.3125C39.375 15.1965 39.3289 15.0852 39.2469 15.0031C39.1648 14.9211 39.0535 14.875 38.9375 14.875H32.8125C32.4644 14.875 32.1306 14.7367 31.8844 14.4906C31.6383 14.2444 31.5 13.9106 31.5 13.5625C31.5 13.2144 31.6383 12.8806 31.8844 12.6344C32.1306 12.3883 32.4644 12.25 32.8125 12.25H38.9375C40.628 12.25 42 13.622 42 15.3125V31.9375C42 32.7497 41.6773 33.5287 41.103 34.103C40.5287 34.6773 39.7497 35 38.9375 35H36.75V37.7002C36.7498 38.2044 36.6002 38.6972 36.32 39.1163C36.0398 39.5355 35.6417 39.8622 35.1759 40.0551C34.7101 40.248 34.1975 40.2985 33.7031 40.2002C33.2086 40.1019 32.7543 39.8592 32.3978 39.5028L27.8933 35H18.8125C18.0003 35 17.2213 34.6773 16.647 34.103C16.0727 33.5287 15.75 32.7497 15.75 31.9375V29.3737C15.75 29.0257 15.8883 28.6918 16.1344 28.4457C16.3806 28.1995 16.7144 28.0612 17.0625 28.0612C17.4106 28.0612 17.7444 28.1995 17.9906 28.4457C18.2367 28.6918 18.375 29.0257 18.375 29.3737V31.9375C18.375 32.179 18.571 32.375 18.8125 32.375H28.4375C28.7855 32.3753 29.1191 32.5138 29.365 32.76L34.125 37.52V33.6875C34.125 33.3394 34.2633 33.0056 34.5094 32.7594C34.7556 32.5133 35.0894 32.375 35.4375 32.375H38.9375C39.0535 32.375 39.1648 32.3289 39.2469 32.2469C39.3289 32.1648 39.375 32.0535 39.375 31.9375V15.3125Z" fill="white"/>
</g>
<defs>
<clipPath id="clip0_97_3742">
<rect width="42" height="42" fill="white"/>
</clipPath>
</defs>
</svg>
