<svg width="48" height="48" viewBox="0 0 48 48" fill="none" xmlns="http://www.w3.org/2000/svg">
<path d="M30 8C30 6.895 27.012 6 24 6C20.988 6 18 6.895 18 8L17.148 10.841C17.501 10.895 17.89 10.952 18.301 11.009C20.097 11.259 22.291 11.5 24 11.5C25.71 11.5 27.903 11.258 29.699 11.01C30.11 10.952 30.499 10.895 30.852 10.841L30 8ZM31.587 12.751C31.119 12.825 30.57 12.908 29.973 12.991C28.16 13.241 25.853 13.5 24 13.5C22.146 13.5 19.84 13.242 18.027 12.99C17.4883 12.9154 16.9502 12.8357 16.413 12.751C13.135 13.478 11 14.662 11 16C11 18.21 16.82 20 24 20C31.18 20 37 18.21 37 16C37 14.662 34.865 13.478 31.587 12.751Z" fill="#3E3E3E"/>
<path d="M16.002 19.1541C16.0425 21.2486 16.903 23.2436 18.3986 24.7105C19.8942 26.1774 21.9055 26.9991 24.0005 26.9991C26.0954 26.9991 28.1067 26.1774 29.6023 24.7105C31.0979 23.2436 31.9584 21.2486 31.999 19.1541C31.3297 19.3135 30.6545 19.4469 29.975 19.5541C29.8385 21.0444 29.15 22.4299 28.0445 23.4388C26.9391 24.4476 25.4965 25.0069 24 25.0069C22.5034 25.0069 21.0608 24.4476 19.9554 23.4388C18.8499 22.4299 18.1614 21.0444 18.025 19.5541C17.3457 19.4469 16.6709 19.3134 16.002 19.1541Z" fill="#3E3E3E"/>
<path fill-rule="evenodd" clip-rule="evenodd" d="M17.1971 35C16.4811 36.2379 15.3477 37.1805 14.0001 37.659V41C14.0001 41.35 13.9401 41.687 13.8301 42H42.0001V36C42.0001 30.583 30.0081 29 24.0001 29C21.9933 29.0104 19.9893 29.1487 18.0001 29.414V35H17.1971ZM24.0001 36C22.6553 35.9985 21.3145 35.8543 20.0001 35.57V31.2C21.4671 31.062 22.8481 31 24.0001 31C25.6661 31 27.8091 31.129 30.0001 31.432V35C29.9871 35.005 27.4901 36 24.0001 36ZM34.7031 32.392C34.1511 32.234 33.5811 32.092 33.0001 31.963V35H35.0001C35.2653 35 35.5196 35.1054 35.7072 35.2929C35.8947 35.4804 36.0001 35.7348 36.0001 36V40H40.0001V36C40.0001 35.494 39.7521 34.908 38.8351 34.223C37.8951 33.521 36.4721 32.898 34.7031 32.392Z" fill="#3E3E3E"/>
<path d="M8 25C8 24.7348 7.89464 24.4804 7.70711 24.2929C7.51957 24.1054 7.26522 24 7 24C6.73478 24 6.48043 24.1054 6.29289 24.2929C6.10536 24.4804 6 24.7348 6 25V32C6 33.0609 6.42143 34.0783 7.17157 34.8284C7.92172 35.5786 8.93913 36 10 36V41C10 41.2652 10.1054 41.5196 10.2929 41.7071C10.4804 41.8946 10.7348 42 11 42C11.2652 42 11.5196 41.8946 11.7071 41.7071C11.8946 41.5196 12 41.2652 12 41V36C13.0609 36 14.0783 35.5786 14.8284 34.8284C15.5786 34.0783 16 33.0609 16 32V25C16 24.7348 15.8946 24.4804 15.7071 24.2929C15.5196 24.1054 15.2652 24 15 24C14.7348 24 14.4804 24.1054 14.2929 24.2929C14.1054 24.4804 14 24.7348 14 25V32C14 32.5304 13.7893 33.0391 13.4142 33.4142C13.0391 33.7893 12.5304 34 12 34V25C12 24.7348 11.8946 24.4804 11.7071 24.2929C11.5196 24.1054 11.2652 24 11 24C10.7348 24 10.4804 24.1054 10.2929 24.2929C10.1054 24.4804 10 24.7348 10 25V34C9.46957 34 8.96086 33.7893 8.58579 33.4142C8.21071 33.0391 8 32.5304 8 32V25Z" fill="#3E3E3E"/>
</svg>
