<svg width="84" height="84" viewBox="0 0 84 84" fill="none" xmlns="http://www.w3.org/2000/svg">
<rect width="84" height="84" rx="42" fill="url(#paint0_linear_469_4563)"/>
<path d="M41.2571 11.0909C41.1508 11.1364 40.8927 12.7162 40.6042 14.978C39.9361 20.2631 40.0728 19.7289 39.3136 19.7743L38.6911 19.8084L38.6455 20.3426L38.6 20.8882H37.8712C37.4764 20.8882 37.0817 20.945 36.9754 21.0246C36.8691 21.1041 36.7932 21.4337 36.7932 21.7747C36.7932 22.2862 36.8995 22.5135 37.4005 23.15C37.7346 23.5705 38.0079 24.0478 38.0079 24.2183C38.0079 24.5366 35.3356 43.8924 35.1838 44.7335L35.0775 45.2335L34.5309 44.8357C33.6503 44.1993 32.1168 43.756 31.8586 44.0742C31.722 44.2334 31.722 47.8818 31.8586 48.0409C31.9042 48.1091 32.3141 48.1659 32.7545 48.1659H33.544L33.6958 48.7342C33.8476 49.2456 33.8325 49.3025 33.5895 49.3025C33.2251 49.3025 32.9974 49.6434 32.9974 50.1776C32.9974 50.6891 33.1492 50.8937 33.544 50.9391C33.8173 50.9732 33.8325 51.1551 33.878 55.8605L33.9084 60.7591L32.9974 61.3842L32.0864 62.0207V64.1234V66.2374H31.4335C31.0691 66.2374 30.7047 66.2942 30.5984 66.3738C30.4921 66.4533 30.4162 66.8625 30.4162 67.3967V68.2832H29.7634C29.399 68.2832 29.0346 68.3401 28.9283 68.4196C28.822 68.4992 28.7461 68.9083 28.7461 69.4425V70.3177L27.8806 70.3518L27 70.3859V71.6929V73H41.5H56V71.6929V70.3859L55.1346 70.3518L54.2539 70.3177V69.4425C54.2539 68.9083 54.178 68.4992 54.0717 68.4196C53.9654 68.3401 53.601 68.2832 53.2366 68.2832H52.5838V67.3967C52.5838 66.8625 52.5079 66.4533 52.4016 66.3738C52.2953 66.2942 51.9309 66.2374 51.5665 66.2374H50.9136V64.1234V62.0207L50.0026 61.3842L49.0916 60.7591L49.122 55.8605C49.1675 51.1551 49.1827 50.9732 49.456 50.9391C49.8812 50.8937 50.0026 50.6777 49.9723 50.0412C49.9267 49.5639 49.866 49.4502 49.5775 49.3593C49.2586 49.257 49.2283 49.1888 49.3194 48.8024C49.4408 48.1886 49.4712 48.1659 50.3063 48.1659C50.8984 48.1659 51.0958 48.1204 51.2173 47.9386C51.4298 47.6544 51.3995 44.4379 51.1869 44.1538C50.8984 43.7446 49.4712 44.1197 48.4539 44.8471C48.1351 45.0744 47.877 45.2108 47.877 45.154C47.877 45.0858 47.801 44.6084 47.7251 44.0742C47.3304 41.4715 44.9921 24.4797 44.9921 24.2183C44.9921 24.0478 45.2654 23.5705 45.5995 23.15C46.1005 22.5135 46.2068 22.2862 46.2068 21.7747C46.2068 21.4337 46.1309 21.1041 46.0246 21.0246C45.9183 20.945 45.5236 20.8882 45.1288 20.8882H44.4L44.3544 20.3426L44.3089 19.8084L43.6864 19.7743C42.9424 19.7289 43.0791 20.2858 42.3958 14.9212C41.9555 11.5228 41.8492 11 41.5 11C41.4544 11 41.3482 11.0455 41.2571 11.0909ZM41.8492 17.3307C42.001 18.5127 42.1073 19.5357 42.1073 19.6039C42.1073 19.6948 41.8796 19.7516 41.4848 19.7516H40.8471L40.9382 19.0924C40.9838 18.7401 41.1052 17.7171 41.2115 16.8193C41.3178 15.9327 41.4544 15.2053 41.5 15.2053C41.5455 15.2053 41.7126 16.16 41.8492 17.3307ZM43.5953 20.6268C43.6408 20.8882 43.6408 20.8882 41.5152 20.8882C39.5414 20.8882 39.3743 20.8768 39.3743 20.6836C39.3743 20.5699 39.4199 20.4335 39.4806 20.3881C39.5414 20.354 40.4827 20.3313 41.5607 20.3426C43.489 20.3767 43.5497 20.3881 43.5953 20.6268ZM45.2958 21.7974C45.2958 22.0134 45.1895 22.0247 41.5 22.0247C37.8105 22.0247 37.7042 22.0134 37.7042 21.7974C37.7042 21.5815 37.8105 21.5701 41.5 21.5701C45.1895 21.5701 45.2958 21.5815 45.2958 21.7974ZM44.8403 22.7749C44.8403 22.8203 44.7037 23.0249 44.5215 23.2295L44.2026 23.616H41.5H38.7974L38.4785 23.2295C38.2963 23.0249 38.1597 22.8203 38.1597 22.7749C38.1597 22.7408 39.6628 22.7067 41.5 22.7067C43.3372 22.7067 44.8403 22.7408 44.8403 22.7749ZM44.1571 24.7753C44.2634 25.3549 47.1178 45.8814 47.1178 46.086C47.1178 46.1883 46.8445 46.2337 46.222 46.2337C45.3717 46.2337 45.3262 46.2224 44.9618 45.8018C44.0356 44.7676 42.4717 43.8356 41.6215 43.8128C40.6346 43.8015 39.2073 44.5743 38.1597 45.7336C37.689 46.2337 37.689 46.2337 36.7932 46.2337C36.1555 46.2337 35.8822 46.1883 35.8822 46.086C35.8822 46.0064 36.1251 44.2561 36.4136 42.1989C36.7021 40.1303 37.3398 35.4818 37.8408 31.8561C38.3419 28.2304 38.7974 25.048 38.8429 24.7753L38.934 24.2979H41.5H44.066L44.1571 24.7753ZM42.077 44.5743C42.3047 44.6653 42.8969 45.0631 43.3979 45.4495L44.3089 46.1769L42.912 46.211C42.1377 46.2224 40.8623 46.2224 40.1031 46.211L38.6911 46.1769L39.3743 45.62C40.1487 44.9835 41.1356 44.4152 41.4544 44.4152C41.5759 44.4152 41.8492 44.4834 42.077 44.5743ZM50.4581 45.4381V46.2337H49.3953C48.8183 46.2337 48.3325 46.211 48.3325 46.1769C48.3325 46.0178 48.788 45.4722 49.122 45.2449C49.4105 45.0403 50.2607 44.6425 50.4277 44.6425C50.4429 44.6425 50.4581 44.9949 50.4581 45.4381ZM33.5592 45.0517C34.045 45.3245 34.6675 45.9496 34.6675 46.1428C34.6675 46.1996 34.1969 46.2337 33.6047 46.2337H32.5419V45.495C32.5419 44.6312 32.7089 44.563 33.5592 45.0517ZM50.4581 47.143V47.484H41.5H32.5419V47.2225C32.5419 47.0748 32.5874 46.9157 32.6482 46.8816C32.6937 46.8361 36.7325 46.802 41.6063 46.802H50.4581V47.143ZM48.5906 48.325C48.545 48.4159 48.4539 48.6774 48.3932 48.8933L48.3021 49.3025H41.5H34.6979L34.6068 48.8933C34.5461 48.6774 34.455 48.4159 34.4094 48.325C34.3487 48.1886 35.3508 48.1659 41.5 48.1659C47.6492 48.1659 48.6513 48.1886 48.5906 48.325ZM49.0916 50.1549C49.0916 50.3027 48.1503 50.3254 41.5 50.3254C34.8497 50.3254 33.9084 50.3027 33.9084 50.1549C33.9084 50.0072 34.8497 49.9844 41.5 49.9844C48.1503 49.9844 49.0916 50.0072 49.0916 50.1549ZM48.1503 55.7809L48.1806 60.5545H41.5H34.8194V55.8037C34.8194 53.1896 34.8497 51.0187 34.8801 50.996C34.9105 50.9732 37.9016 50.9619 41.5304 50.9732L48.1047 50.996L48.1503 55.7809ZM48.8942 61.4865C49.0916 61.6229 49.2435 61.7707 49.2435 61.8275C49.2435 61.873 45.7665 61.9184 41.5 61.9184C37.2487 61.9184 33.7565 61.8843 33.7565 61.8389C33.7565 61.7934 33.9084 61.6456 34.0906 61.4979L34.4094 61.2365H41.4848C48.5147 61.2365 48.545 61.2365 48.8942 61.4865ZM50.1241 62.6799C50.1696 62.7936 48.378 62.8277 41.5152 62.8277C36.7476 62.8277 32.8455 62.7822 32.8455 62.7368C32.8455 62.6799 32.8911 62.6004 32.9518 62.5663C32.9974 62.5208 36.8691 62.4981 41.5455 62.5094C48.1958 62.5322 50.0634 62.5776 50.1241 62.6799ZM50.1241 64.8962L50.1696 66.2374H41.5H32.8455V64.9531C32.8455 64.237 32.8911 63.6233 32.9518 63.5892C32.9974 63.5437 36.8843 63.521 41.5607 63.5324L50.0785 63.5665L50.1241 64.8962ZM51.6728 67.6013V68.2832H41.5H31.3272V67.6013V66.9193H41.5H51.6728V67.6013ZM53.3429 69.6471V70.3291H41.5H29.6571V69.6471V68.9652H41.5H53.3429V69.6471ZM55.3168 71.6929V72.3749H41.5H27.6832V71.6929V71.011H41.5H55.3168V71.6929Z" fill="white"/>
<path d="M41.136 26.2869C41.0905 26.3892 41.0449 29.9694 41.0449 34.2429C41.0449 40.9941 41.0753 42.017 41.2727 42.1421C41.4549 42.2557 41.546 42.2557 41.7282 42.1421C41.9256 42.017 41.9559 41.0168 41.9256 34.0838L41.88 26.1732L41.5612 26.1391C41.3638 26.1164 41.1968 26.1846 41.136 26.2869Z" fill="white"/>
<path d="M39.45 52.269C38.4479 52.6441 37.5521 53.0305 37.4458 53.1215C37.218 53.3601 37.1725 59.0885 37.4002 59.4181C37.5521 59.634 37.7191 59.6454 41.4997 59.6454C45.2348 59.6454 45.4473 59.634 45.5992 59.4294C45.8269 59.0885 45.8117 53.3715 45.5688 53.1328C45.3562 52.9282 41.7578 51.5757 41.4541 51.5871C41.3479 51.5871 40.4521 51.894 39.45 52.269ZM43.2913 52.8941L44.84 53.4283V56.2016V58.9634H41.4997H38.1594V56.2016V53.4397L39.7992 52.8601C40.695 52.5418 41.4997 52.2918 41.5756 52.3145C41.6667 52.3372 42.4259 52.5873 43.2913 52.8941Z" fill="white"/>
<defs>
<linearGradient id="paint0_linear_469_4563" x1="42" y1="0" x2="42" y2="84" gradientUnits="userSpaceOnUse">
<stop stop-color="#FFA4AF"/>
<stop offset="1" stop-color="#EE455A"/>
</linearGradient>
</defs>
</svg>
