<svg width="32" height="32" viewBox="0 0 32 32" fill="none" xmlns="http://www.w3.org/2000/svg">
<path d="M28 13H22V26H28C28.2652 26 28.5196 25.8946 28.7071 25.7071C28.8946 25.5196 29 25.2652 29 25V14C29 13.7348 28.8946 13.4804 28.7071 13.2929C28.5196 13.1054 28.2652 13 28 13V13Z" stroke="#594545" stroke-width="2.00322" stroke-linecap="round" stroke-linejoin="round"/>
<path d="M22 13L17 3C15.9391 3 14.9217 3.42143 14.1716 4.17157C13.4214 4.92172 13 5.93913 13 7V10H5.2625C4.97891 9.9993 4.69846 10.0593 4.43998 10.176C4.1815 10.2926 3.95098 10.4632 3.7639 10.6764C3.57682 10.8895 3.43752 11.1402 3.35535 11.4116C3.27318 11.683 3.25004 11.9689 3.2875 12.25L4.7875 24.25C4.84819 24.7317 5.08204 25.1749 5.44544 25.4969C5.80884 25.8189 6.27697 25.9977 6.7625 26H22" stroke="#594545" stroke-width="2.00322" stroke-linecap="round" stroke-linejoin="round"/>
</svg>
