<svg width="21" height="17" viewBox="0 0 21 17" fill="none" xmlns="http://www.w3.org/2000/svg">
<g clip-path="url(#clip0_314_1767)">
<path d="M10.5862 15.4215C10.525 15.4572 10.47 15.489 10.4218 15.5166C10.3733 15.4885 10.318 15.4561 10.2564 15.4197C9.99507 15.2654 9.62044 15.0383 9.17036 14.7493C8.26921 14.1705 7.07032 13.3463 5.87391 12.362C4.67503 11.3758 3.49355 10.2409 2.61558 9.04338C1.73351 7.84024 1.19238 6.62105 1.19238 5.45563C1.19238 2.80916 3.33777 0.663734 5.98428 0.663749L5.98818 0.663719C7.60652 0.651098 9.1195 1.46508 10.0008 2.82251L10.4177 3.46472L10.838 2.82475C11.7261 1.4727 13.2365 0.660025 14.8541 0.663731C17.4959 0.676924 19.6343 2.81512 19.6478 5.45688C19.6474 6.6428 19.1051 7.87172 18.2242 9.07677C17.3466 10.2773 16.1657 11.4093 14.9672 12.3905C13.7713 13.3696 12.5728 14.1864 11.6719 14.7589C11.2219 15.0449 10.8475 15.2692 10.5862 15.4215Z" stroke="#F6647D"/>
</g>
<defs>
<clipPath id="clip0_314_1767">
<rect width="20.0769" height="16.7308" fill="white" transform="translate(0.692383 0.151245)"/>
</clipPath>
</defs>
</svg>
