<svg width="35" height="33" viewBox="0 0 35 33" fill="none" xmlns="http://www.w3.org/2000/svg">
<path d="M7.9939 2.73954C7.86477 2.58292 7.70177 2.454 7.51574 2.36134C7.3297 2.26868 7.12488 2.2144 6.91489 2.20211C6.70489 2.18982 6.49452 2.2198 6.29776 2.29006C6.101 2.36032 5.92234 2.46925 5.77366 2.60961L3.51186 4.74424C2.45533 5.74247 2.06597 7.15525 2.52751 8.39478C4.44313 13.5253 7.55925 18.1834 11.6447 22.0234C15.7176 25.8754 20.6579 28.8135 26.0993 30.6197C27.4139 31.0549 28.9123 30.6878 29.971 29.6916L32.2328 27.5591C32.3817 27.4189 32.4972 27.2504 32.5717 27.0649C32.6463 26.8794 32.6781 26.681 32.665 26.483C32.652 26.285 32.5944 26.0919 32.4961 25.9165C32.3979 25.7411 32.2611 25.5874 32.095 25.4657L27.0486 21.7656C26.8712 21.6359 26.6647 21.5458 26.445 21.5022C26.2252 21.4586 25.9978 21.4627 25.7799 21.514L20.9894 22.6422C20.35 22.7929 19.6801 22.7849 19.0449 22.619C18.4097 22.4531 17.8309 22.1349 17.3649 21.6955L11.9925 16.6281C11.5261 16.1889 11.1883 15.6432 11.0119 15.0443C10.8356 14.4454 10.8268 13.8137 10.9863 13.2106L12.185 8.69383C12.2395 8.48841 12.2438 8.27399 12.1976 8.06677C12.1513 7.85955 12.0558 7.66494 11.9182 7.49761L7.9939 2.73954ZM4.12215 1.05452C4.50494 0.693487 4.96481 0.413367 5.47123 0.23276C5.97764 0.0521533 6.51901 -0.0248077 7.05939 0.00698765C7.59977 0.038783 8.1268 0.178607 8.60547 0.417175C9.08414 0.655743 9.50351 0.987597 9.83572 1.3907L13.76 6.14671C14.4796 7.01912 14.7334 8.15553 14.449 9.22801L13.2525 13.7448C13.1906 13.9787 13.194 14.2238 13.2622 14.4561C13.3304 14.6885 13.4612 14.9003 13.6419 15.0709L19.0164 20.1384C19.1976 20.309 19.4226 20.4326 19.6694 20.4969C19.9163 20.5612 20.1766 20.5642 20.4251 20.5055L25.2134 19.3773C25.7747 19.245 26.3606 19.2347 26.9267 19.3473C27.4929 19.4598 28.0245 19.6922 28.4814 20.027L33.5256 23.727C35.339 25.0573 35.5052 27.5838 33.8822 29.1121L31.6203 31.2447C30.0017 32.7709 27.5824 33.4412 25.3271 32.6925C19.5549 30.7776 14.314 27.6618 9.99322 23.5765C5.66055 19.5032 2.35604 14.5625 0.32477 9.12076C-0.46708 6.99644 0.243835 4.71331 1.86253 3.18709L4.12434 1.05452H4.12215Z" fill="white"/>
</svg>
