<svg width="26" height="25" viewBox="0 0 26 25" fill="none" xmlns="http://www.w3.org/2000/svg">
<path d="M0.474483 22.3388L5.50715 17.498C1.74147 12.6597 2.76825 5.80244 7.80051 2.18189C12.8328 -1.43865 19.965 -0.451446 23.7306 4.38686C27.4963 9.22517 26.4695 16.0825 21.4373 19.703C17.3949 22.6113 11.8429 22.6113 7.80051 19.703L2.76572 24.5438C2.13301 25.1521 1.10719 25.1521 0.474531 24.5438C-0.158176 23.9354 -0.158176 22.9492 0.474531 22.3409L0.474483 22.3388ZM14.5769 18.7687C19.0494 18.7687 22.675 15.2829 22.675 10.9828C22.675 6.68273 19.0494 3.19689 14.5769 3.19689C10.1045 3.19689 6.47891 6.68273 6.47891 10.9828C6.48367 15.2809 10.1065 18.7641 14.5769 18.7687Z" fill="white"/>
</svg>
