<svg width="21" height="20" viewBox="0 0 21 20" fill="none" xmlns="http://www.w3.org/2000/svg">
<g clip-path="url(#clip0_8_1756)">
<path d="M20.448 7.67197C20.3171 7.26699 19.9579 6.97936 19.5329 6.94106L13.7603 6.4169L11.4777 1.0742C11.3094 0.682654 10.9261 0.429199 10.5002 0.429199C10.0743 0.429199 9.69103 0.682654 9.52272 1.07512L7.2401 6.4169L1.46664 6.94106C1.04243 6.98027 0.684145 7.26699 0.552459 7.67197C0.420772 8.07695 0.542387 8.52114 0.863288 8.80115L5.22665 12.6278L3.94 18.2956C3.84585 18.7123 4.00759 19.1431 4.35337 19.393C4.53922 19.5273 4.75667 19.5956 4.97594 19.5956C5.165 19.5956 5.35254 19.5447 5.52085 19.444L10.5002 16.468L15.4778 19.444C15.842 19.6631 16.3012 19.6431 16.6462 19.393C16.9921 19.1423 17.1537 18.7114 17.0595 18.2956L15.7729 12.6278L20.1362 8.80191C20.4571 8.52114 20.5797 8.07771 20.448 7.67197Z" fill="#FFC107"/>
</g>
<defs>
<clipPath id="clip0_8_1756">
<rect width="20" height="20" fill="white" transform="translate(0.5)"/>
</clipPath>
</defs>
</svg>
