<svg width="38" height="38" viewBox="0 0 38 38" fill="none" xmlns="http://www.w3.org/2000/svg">
<path d="M6.33333 14.2499H14.25C14.25 12.5083 12.825 11.0833 11.0833 11.0833H6.33333C5.4625 11.0833 4.75 11.7958 4.75 12.6666C4.75 13.5374 5.4625 14.2499 6.33333 14.2499Z" fill="#767676"/>
<path d="M34.8335 22.2618V12.6668C34.8335 10.9251 33.4085 9.50009 31.6668 9.50009H21.7077L20.0293 7.82175L22.2618 5.58925L21.1377 4.46509L15.5485 10.0543L16.6727 11.1784L18.9052 8.94592L20.5835 10.6243V14.2501C20.5835 15.9918 19.1585 17.4168 17.4168 17.4168H14.1868C13.8385 17.1634 13.4743 16.9418 13.0943 16.7359L12.461 18.1451L11.7327 17.8126L12.366 16.3876C11.4952 16.0393 10.5135 15.8334 9.50016 15.8334C8.661 15.8334 7.8535 16.0076 7.0935 16.2451L7.63183 17.6859L6.88766 17.9709L6.3335 16.4984C4.66234 17.2295 3.30073 18.5239 2.486 20.1559L3.89516 20.7893L3.56266 21.5176L2.13766 20.8843C1.78933 21.7551 1.5835 22.7368 1.5835 23.7501C1.5835 24.5893 1.75766 25.3968 1.99516 26.1568L3.436 25.6184L3.721 26.3626L2.2485 26.9168C2.9796 28.5879 4.27397 29.9495 5.906 30.7643L6.53933 29.3551L7.26766 29.6876L6.63433 31.1126C7.50516 31.4609 8.48683 31.6668 9.50016 31.6668C10.3393 31.6668 11.1468 31.4926 11.9068 31.2551L11.3685 29.8143L12.1127 29.5293L12.6668 31.0018C14.338 30.2706 15.6996 28.9763 16.5143 27.3443L15.1052 26.7109L15.4377 25.9826L16.8627 26.6159C17.021 26.2043 17.1477 25.7609 17.2427 25.3176H25.4127C25.381 25.5868 25.3335 25.8559 25.3335 26.1251C25.3335 29.1809 27.8193 31.6668 30.8752 31.6668C33.931 31.6668 36.4168 29.1809 36.4168 26.1251C36.4168 24.6209 35.8152 23.2593 34.8335 22.2618ZM9.50016 28.5001C6.87183 28.5001 4.75016 26.3784 4.75016 23.7501C4.75016 21.1218 6.87183 19.0001 9.50016 19.0001C12.1285 19.0001 14.2502 21.1218 14.2502 23.7501C14.2502 26.3784 12.1285 28.5001 9.50016 28.5001ZM17.211 22.1668C17.1477 21.8818 17.0843 21.6126 17.0052 21.3434L15.5643 21.8818L15.2793 21.1376L16.7518 20.5834H17.4168C20.916 20.5834 23.7502 17.7493 23.7502 14.2501V12.6668H31.6668V20.6626C31.4135 20.6309 31.1443 20.5834 30.8752 20.5834C29.371 20.5834 28.0093 21.1851 27.0118 22.1668H17.211ZM30.8752 28.5001C29.561 28.5001 28.5002 27.4393 28.5002 26.1251C28.5002 24.8109 29.561 23.7501 30.8752 23.7501C32.1893 23.7501 33.2502 24.8109 33.2502 26.1251C33.2502 27.4393 32.1893 28.5001 30.8752 28.5001Z" fill="#767676"/>
</svg>
